<svg width="20" height="20" viewBox="0 0 20 20" xmlns="http://www.w3.org/2000/svg"><title>Shape</title><path d="M19.248 15.904l-.013-.03c-1.418-2.986-3.602-3.69-3.847-3.76l-.035-.01-1.292-.022h-.002c-.73 0-1.323-.593-1.323-1.323v-.403c.415-.55.73-1.17.963-1.89l.04-.038.01-.01c.706-.705.846-1.856.33-2.682 0 0 0-.003-.004-.003V5.08c0-.36 0-.73-.003-1.098v-.004c-.024-1.096-.388-2.068-1.022-2.74-.536-.57-1.275-.954-2.136-1.12A6.634 6.634 0 0 0 9.662 0a6.26 6.26 0 0 0-1.517.185C7.227.418 6.42.97 5.935 1.693c-.407.596-.643 1.36-.678 2.212v.006c-.007.435-.007.87-.003 1.273l.003.546a.753.753 0 0 0-.045.08c-.47.86-.29 1.96.418 2.65l.02.06c.203.642.522 1.25.95 1.812v.424c0 .73-.594 1.323-1.324 1.323H4.16l-.194.024-.02.007c-.245.07-2.43.775-3.847 3.762l-.027.054L0 17.336v.012a1.97 1.97 0 0 0 1.97 1.97h15.375a1.97 1.97 0 0 0 1.97-1.97v-1.132l-.067-.312zM8.336 10.76V9.712l-.204-.242a4.478 4.478 0 0 1-.848-1.54c-.048-.164-.15-.506-.453-.72-.13-.114-.19-.372-.07-.602.087-.127.27-.398.23-.726V5.18c0-.37 0-.803.004-1.22.022-.514.153-.957.38-1.29.25-.375.685-.662 1.192-.792.347-.09.714-.134 1.09-.134.306 0 .618.028.924.09.348.066.84.222 1.196.6.338.36.53.913.545 1.57.004.357.004.72.004 1.074v.816c-.016.357.156.606.25.74.088.146.072.402-.103.58-.11.096-.347.306-.407.615a4.667 4.667 0 0 1-.88 1.657l-.204.242v1.023a3.073 3.073 0 0 0 3.07 3.07H15c.347.133 1.616.74 2.566 2.623v.896a.227.227 0 0 1-.226.226H1.97a.227.227 0 0 1-.226-.226v-.896c.42-.832.947-1.508 1.565-2.015.448-.365.825-.537 1-.608h.953a3.07 3.07 0 0 0 3.073-3.063z" fill="#76B2E0" fill-rule="evenodd"/></svg>