<svg width="16" height="23" viewBox="0 0 16 23" xmlns="http://www.w3.org/2000/svg"><title>noun_136282_cc</title><g fill="#76B2E0" fill-rule="evenodd"><path d="M14.5 23h-13C.673 23 0 22.327 0 21.5v-11C0 9.673.673 9 1.5 9h13c.827 0 1.5.673 1.5 1.5v11c0 .827-.673 1.5-1.5 1.5zM2 21h12V11H2v10z"/><path d="M12.95 11H2.05V6.094c0-3.28 2.67-5.95 5.95-5.95 3.31 0 6 2.627 6 5.856h-2c0-2.126-1.794-3.857-4-3.857a3.955 3.955 0 0 0-3.95 3.95V9h8.9v2zM8.948 18.5H7.052c-.29 0-.51-.26-.462-.544L7 15.5l-.136-.544a1.17 1.17 0 1 1 2.272 0L9 15.5l.41 2.456a.468.468 0 0 1-.462.544z"/></g></svg>