<svg width="61" height="57" viewBox="0 0 61 57" xmlns="http://www.w3.org/2000/svg"><title>Shape</title><defs><linearGradient x1="50%" y1="0%" x2="50%" y2="100%" id="b"><stop stop-color="#369CE6" offset="0%"/><stop stop-color="#4A6CC1" offset="100%"/></linearGradient><filter x="-50%" y="-50%" width="200%" height="200%" filterUnits="objectBoundingBox" id="a"><feOffset dy="12" in="SourceAlpha" result="shadowOffsetOuter1"/><feGaussianBlur stdDeviation="8.5" in="shadowOffsetOuter1" result="shadowBlurOuter1"/><feColorMatrix values="0 0 0 0 0.400568182 0 0 0 0 0.616090797 0 0 0 0 1 0 0 0 0.193229167 0" in="shadowBlurOuter1" result="shadowMatrixOuter1"/><feMerge><feMergeNode in="shadowMatrixOuter1"/><feMergeNode in="SourceGraphic"/></feMerge></filter></defs><path d="M216.05 76.072c.32.142.698.03.895-.262l8.205-12.217a.73.73 0 1 0-1.21-.813l-7.867 11.71-7.193-3.13a.735.735 0 0 0-.853.205l-9.922 12.018V61.73a.73.73 0 0 0-1.458 0v23.156h-2.918a.73.73 0 0 0 0 1.458h2.917v1.824a.73.73 0 0 0 1.458 0v-1.824h25.344a.73.73 0 0 0 0-1.458h-24.523l9.876-11.967 7.247 3.152z" transform="translate(-179 -59)" filter="url(#a)" fill="url(#b)" fill-rule="evenodd"/></svg>