<svg width="32" height="26" viewBox="0 0 32 26" xmlns="http://www.w3.org/2000/svg"><title>Shape Copy</title><defs><linearGradient x1="50%" y1="0%" x2="50%" y2="100%" id="a"><stop stop-color="#369CE6" offset="0%"/><stop stop-color="#4A6CC1" offset="100%"/></linearGradient></defs><path d="M224.656 65.92h-9.1V63.06A2.066 2.066 0 0 0 213.49 61h-6.986a2.064 2.064 0 0 0-2.06 2.062v2.857h-9.105a.687.687 0 0 0-.686.687v17.525c0 1.138.925 2.062 2.062 2.062h26.567a2.064 2.064 0 0 0 2.063-2.062V66.606a.69.69 0 0 0-.69-.687zM205.82 63.06c0-.38.31-.687.686-.687h6.988c.377 0 .686.308.686.687v2.857h-8.36V63.06zm18.152 4.23v5.733H212.51v-.707a2.06 2.06 0 0 0-2.06-2.062h-.9a2.065 2.065 0 0 0-2.063 2.062v.707H196.03v-5.733h27.942zm-15.11 5.024a.69.69 0 0 1 .688-.688h.9c.38 0 .687.308.687.688v2.792c0 .38-.308.686-.687.686h-.9a.688.688 0 0 1-.688-.686v-2.792zm14.42 12.504h-26.566a.69.69 0 0 1-.687-.69V74.4h11.457v.708c0 1.137.926 2.06 2.063 2.06h.9a2.06 2.06 0 0 0 2.06-2.06v-.71h11.462v9.732a.69.69 0 0 1-.69.69z" transform="translate(-194 -61)" fill="url(#a)" fill-rule="evenodd"/></svg>