<svg width="60" height="66" viewBox="0 0 60 66" xmlns="http://www.w3.org/2000/svg"><title>Shape</title><defs><linearGradient x1="50%" y1="0%" x2="50%" y2="100%" id="b"><stop stop-color="#369CE6" offset="0%"/><stop stop-color="#4A6CC1" offset="100%"/></linearGradient><filter x="-50%" y="-50%" width="200%" height="200%" filterUnits="objectBoundingBox" id="a"><feOffset dy="12" in="SourceAlpha" result="shadowOffsetOuter1"/><feGaussianBlur stdDeviation="8.5" in="shadowOffsetOuter1" result="shadowBlurOuter1"/><feColorMatrix values="0 0 0 0 0.400568182 0 0 0 0 0.616090797 0 0 0 0 1 0 0 0 0.193229167 0" in="shadowBlurOuter1" result="shadowMatrixOuter1"/><feMerge><feMergeNode in="shadowMatrixOuter1"/><feMergeNode in="SourceGraphic"/></feMerge></filter></defs><path d="M170.055 59.34c-5.313 0-9.635 4.322-9.635 9.635a9.54 9.54 0 0 0 2.963 6.94c.022.024.045.046.07.068.03.026 2.76 2.498 3.07 5.72a2.014 2.014 0 0 0-1.425 1.917v1.43a2.02 2.02 0 0 0 2.017 2.017h.646v.503a2.02 2.02 0 0 0 2.017 2.017h.728a2.02 2.02 0 0 0 2.017-2.017v-.503h.476a2.02 2.02 0 0 0 2.016-2.017v-1.43c0-.902-.602-1.662-1.426-1.917.31-3.224 3.042-5.696 3.07-5.72a.496.496 0 0 0 .065-.065 9.54 9.54 0 0 0 2.97-6.943c-.003-5.313-4.326-9.634-9.638-9.634zm1.12 28.23c0 .37-.3.672-.672.672h-.727c-.37 0-.672-.3-.672-.672v-.503h2.07v.503zm2.493-2.52c0 .37-.302.672-.672.672h-5.88c-.372 0-.673-.3-.673-.672v-1.43c0-.368.3-.67.672-.67h5.882c.37 0 .672.3.672.67v1.43h-.002zm2.077-10.06a.59.59 0 0 1-.03.033c-.45.412-3.182 3.04-3.503 6.582h-4.317c-.317-3.533-3.033-6.154-3.498-6.58a.716.716 0 0 0-.033-.034 8.207 8.207 0 0 1-2.6-6.015c0-4.572 3.72-8.29 8.29-8.29 4.57 0 8.29 3.72 8.29 8.29a8.2 8.2 0 0 1-2.6 6.016zm-5.69-21.49c-.37 0-.672.3-.672.672v3.137a.67.67 0 0 0 1.343 0V54.17a.67.67 0 0 0-.67-.672zm-12.043 16.985a.67.67 0 0 0 0-1.343h-3.137a.673.673 0 0 0 0 1.343h3.137zm27.784-.672a.67.67 0 0 0-.67-.67h-3.138a.673.673 0 0 0 0 1.342h3.137c.37 0 .67-.3.67-.672z" transform="translate(-140 -51.34)" filter="url(#a)" fill="url(#b)" fill-rule="evenodd"/></svg>