<?xml version="1.0" encoding="UTF-8" standalone="no"?>
<svg width="20px" height="20px" viewBox="0 0 20 20" version="1.1" xmlns="http://www.w3.org/2000/svg" xmlns:xlink="http://www.w3.org/1999/xlink" xmlns:sketch="http://www.bohemiancoding.com/sketch/ns">
    <!-- Generator: Sketch 3.4.4 (17249) - http://www.bohemiancoding.com/sketch -->
    <title>Shape</title>
    <desc>Created with Sketch.</desc>
    <defs></defs>
    <g id="Landingpage" stroke="none" stroke-width="1" fill="none" fill-rule="evenodd" sketch:type="MSPage">
        <g id="Desktop-(1170,-15)" sketch:type="MSArtboardGroup" transform="translate(-883.000000, -155.000000)" fill="#76B2E0">
            <g id="user" sketch:type="MSLayerGroup" transform="translate(883.000000, 155.000000)">
                <g id="Layer_1" sketch:type="MSShapeGroup">
                    <path d="M19.2480498,15.9040279 L19.2352985,15.8753375 C17.8167192,12.8883513 15.6330633,12.1838434 15.3876013,12.1137114 L15.3525353,12.1041479 L14.0614686,12.0818332 L14.0582808,12.0818332 C13.3282703,12.0818332 12.735336,11.4888989 12.735336,10.7588884 L12.735336,10.3572232 C13.1497525,9.80573057 13.4653465,9.18729373 13.6980573,8.46684668 L13.7394989,8.42859286 L13.7490624,8.4190294 C14.4535704,7.71452145 14.5938344,6.56371887 14.0774077,5.73807381 C14.0774077,5.73807381 14.0774077,5.73488599 14.0742199,5.73488599 L14.0742199,5.08138314 C14.0742199,4.72115962 14.0742199,4.35137264 14.0710321,3.98158566 L14.0710321,3.97839784 C14.0455296,2.88178818 13.6821182,1.90950345 13.0477423,1.23687369 C12.5121887,0.669441944 11.7726148,0.283715872 10.9119037,0.117949295 C10.4974872,0.0382538254 10.0766952,0 9.66227873,0 C9.13947645,0 8.62942544,0.0637563756 8.14487699,0.184893489 C7.22678518,0.41760426 6.42026703,0.96909691 5.93571857,1.69273177 C5.52767777,2.28885389 5.29177918,3.05393039 5.25671317,3.90507801 L5.25671317,3.91145365 C5.25033753,4.344997 5.25033753,4.77854035 5.25352535,5.18339334 L5.25671317,5.72851035 C5.23758626,5.76038854 5.22164716,5.78907891 5.21208371,5.81139364 C4.74347435,6.66891689 4.9219922,7.76871437 5.62968797,8.46047105 L5.64881488,8.5210396 C5.85283528,9.16179118 6.17161716,9.77066457 6.59878488,10.3317207 L6.59878488,10.7557006 C6.59878488,11.4857111 6.00585059,12.0786454 5.27584008,12.0786454 L4.16010351,12.0786454 L3.96564656,12.1041479 L3.94651965,12.1105236 C3.70105761,12.1806556 1.51740174,12.8851635 0.0988223822,15.8721497 L0.073319832,15.9263426 L0,17.3353585 L0,17.3481098 C0,18.435156 0.883025803,19.3181818 1.97007201,19.3181818 L17.344922,19.3181818 C18.4319682,19.3181818 19.314994,18.435156 19.314994,17.3481098 L19.314994,16.2164341 L19.2480498,15.9040279 L19.2480498,15.9040279 Z M8.33614611,10.7588884 L8.33614611,9.71328383 L8.13212571,9.4710096 C7.74321182,9.00558806 7.46587159,8.50191269 7.28416592,7.93129313 C7.23634863,7.76552655 7.13433843,7.42442994 6.83149565,7.21084608 C6.70079508,7.09608461 6.64022652,6.83787129 6.76136364,6.60834833 C6.84743474,6.48083558 7.02914041,6.20987099 6.99088659,5.88152565 L6.99088659,5.18020552 C6.99088659,4.81041854 6.99088659,4.37687519 6.99407441,3.95927093 C7.01638914,3.4460321 7.14708971,3.00292529 7.37342484,2.67139214 C7.62526253,2.29522952 8.05880588,2.00832583 8.56566907,1.87762526 C8.91314131,1.78836634 9.27974047,1.74373687 9.65590309,1.74373687 C9.96193369,1.74373687 10.2743399,1.77242724 10.5803705,1.8329958 C10.9278428,1.89993999 11.4187669,2.05614311 11.7758026,2.43549355 C12.1137114,2.79252925 12.3049805,3.34720972 12.3209196,4.00390039 C12.3241074,4.36093609 12.3241074,4.72434743 12.3241074,5.07819532 L12.3241074,5.89427693 C12.3081683,6.25131263 12.4803105,6.4999625 12.5727573,6.63385089 L12.5727573,6.63385089 C12.6620162,6.78049055 12.6460771,7.03551605 12.4707471,7.2140339 C12.3591734,7.30966847 12.1232748,7.52006451 12.0627063,7.82928293 C11.8682493,8.46684668 11.5717822,9.02471497 11.1828683,9.48694869 L10.9788479,9.72922292 L10.9788479,10.7525128 C10.9788479,12.4452445 12.3559856,13.8223822 14.0487174,13.8223822 L15.0018752,13.8223822 C15.3493474,13.9562706 16.6180993,14.5619562 17.5680693,16.4459571 L17.5680693,17.3417342 C17.5680693,17.4660591 17.4660591,17.5680693 17.3417342,17.5680693 L1.97007201,17.5680693 C1.84574707,17.5680693 1.74373687,17.4660591 1.74373687,17.3417342 L1.74373687,16.4459571 C2.16452895,15.6139364 2.69051905,14.9381188 3.3089559,14.4312556 C3.75843834,14.0646565 4.13460096,13.8925143 4.30993099,13.8223822 L5.26308881,13.8223822 C6.9590084,13.8255701 8.33614611,12.4484323 8.33614611,10.7588884 L8.33614611,10.7588884 Z" id="Shape"></path>
                </g>
            </g>
        </g>
    </g>
</svg>