<?xml version="1.0" encoding="UTF-8" standalone="no"?>
<svg width="60px" height="66px" viewBox="0 0 60 66" version="1.1" xmlns="http://www.w3.org/2000/svg" xmlns:xlink="http://www.w3.org/1999/xlink" xmlns:sketch="http://www.bohemiancoding.com/sketch/ns">
    <!-- Generator: Sketch 3.4.4 (17249) - http://www.bohemiancoding.com/sketch -->
    <title>Shape</title>
    <desc>Created with Sketch.</desc>
    <defs>
        <linearGradient x1="50%" y1="0%" x2="50%" y2="100%" id="linearGradient-1">
            <stop stop-color="#369CE6" offset="0%"></stop>
            <stop stop-color="#4A6CC1" offset="100%"></stop>
        </linearGradient>
        <filter x="-50%" y="-50%" width="200%" height="200%" filterUnits="objectBoundingBox" id="filter-2">
            <feOffset dx="0" dy="12" in="SourceAlpha" result="shadowOffsetOuter1"></feOffset>
            <feGaussianBlur stdDeviation="8.5" in="shadowOffsetOuter1" result="shadowBlurOuter1"></feGaussianBlur>
            <feColorMatrix values="0 0 0 0 0.400568182   0 0 0 0 0.616090797   0 0 0 0 1  0 0 0 0.193229167 0" in="shadowBlurOuter1" type="matrix" result="shadowMatrixOuter1"></feColorMatrix>
            <feMerge>
                <feMergeNode in="shadowMatrixOuter1"></feMergeNode>
                <feMergeNode in="SourceGraphic"></feMergeNode>
            </feMerge>
        </filter>
    </defs>
    <g id="Landingpage" stroke="none" stroke-width="1" fill="none" fill-rule="evenodd" sketch:type="MSPage">
        <g id="Desktop-(1170,-15)" sketch:type="MSArtboardGroup" transform="translate(-670.000000, -3016.000000)" filter="url(#filter-2)" fill="url(#linearGradient-1)">
            <g id="hdr-copy-2" sketch:type="MSLayerGroup" transform="translate(530.000000, 2964.660797)">
                <path d="M170.054504,59.340594 C164.742009,59.340594 160.420196,63.6624064 160.420196,68.9749012 C160.420196,71.6167212 161.471795,74.0790001 163.382626,75.9144879 C163.405068,75.9385336 163.427511,75.9609762 163.451557,75.9834189 C163.482014,76.0090676 166.212002,78.4809647 166.522993,81.7030874 C165.70063,81.9579718 165.097885,82.7178156 165.097885,83.6203306 L165.097885,85.0502477 C165.097885,86.1611587 166.002003,87.0668798 167.114517,87.0668798 L167.760545,87.0668798 L167.760545,87.5702363 C167.760545,88.6811472 168.664663,89.5868683 169.777177,89.5868683 L170.50496,89.5868683 C171.61587,89.5868683 172.521592,88.6827503 172.521592,87.5702363 L172.521592,87.0668798 L172.997696,87.0668798 C174.108607,87.0668798 175.014328,86.1627618 175.014328,85.0502477 L175.014328,83.6203306 C175.014328,82.7178156 174.411583,81.9579718 173.587617,81.7030874 C173.898608,78.4793617 176.630199,76.0074646 176.659054,75.9834189 C176.683099,75.9625793 176.703939,75.9417397 176.723175,75.917694 C178.637213,74.0806031 179.692017,71.6183243 179.692017,68.9749012 C179.690414,63.6624064 175.366998,59.340594 170.054504,59.340594 L170.054504,59.340594 Z M171.175033,87.5702363 C171.175033,87.9389369 170.87366,88.2419126 170.503356,88.2419126 L169.775574,88.2419126 C169.40527,88.2419126 169.103897,87.9405399 169.103897,87.5702363 L169.103897,87.0668798 L171.175033,87.0668798 L171.175033,87.5702363 L171.175033,87.5702363 Z M173.66777,85.0502477 C173.66777,85.4189484 173.366397,85.7219241 172.996093,85.7219241 L167.114517,85.7219241 C166.744213,85.7219241 166.442841,85.4205514 166.442841,85.0502477 L166.442841,83.6203306 C166.442841,83.25163 166.744213,82.9486543 167.114517,82.9486543 L167.255585,82.9486543 L172.856628,82.9486543 L172.997696,82.9486543 C173.366397,82.9486543 173.669373,83.2500269 173.669373,83.6203306 L173.669373,85.0502477 L173.66777,85.0502477 Z M175.745317,74.9911333 C175.735699,75.0023546 175.724478,75.013576 175.714859,75.0231942 C175.264403,75.4351771 172.532813,78.0625697 172.212204,81.6053016 L167.8952,81.6053016 C167.577797,78.072188 164.862237,75.4512076 164.397354,75.0264003 C164.386132,75.013576 164.374911,75.0023546 164.36369,74.9911333 C162.686904,73.4057207 161.763549,71.2688602 161.763549,68.9749012 C161.763549,64.4030137 165.482616,60.6855497 170.052901,60.6855497 C174.623185,60.6855497 178.343855,64.4046167 178.343855,68.9749012 C178.345458,71.2688602 177.422104,73.4057207 175.745317,74.9911333 Z M170.054504,53.5 C169.6842,53.5 169.382827,53.8013727 169.382827,54.1716763 L169.382827,57.3088376 C169.382827,57.6807443 169.6842,57.9805139 170.054504,57.9805139 C170.424807,57.9805139 170.72618,57.6791412 170.72618,57.3088376 L170.72618,54.1716763 C170.72618,53.7997696 170.42641,53.5 170.054504,53.5 Z M158.012421,70.4849707 C158.384328,70.4849707 158.684097,70.183598 158.684097,69.8132943 C158.684097,69.4413876 158.382725,69.141618 158.012421,69.141618 L154.87526,69.141618 C154.504956,69.141618 154.203583,69.4429907 154.203583,69.8132943 C154.203583,70.183598 154.504956,70.4849707 154.87526,70.4849707 L158.012421,70.4849707 Z M185.796417,69.8132943 C185.796417,69.4413876 185.495044,69.141618 185.12474,69.141618 L181.987579,69.141618 C181.617275,69.141618 181.315903,69.4429907 181.315903,69.8132943 C181.315903,70.183598 181.617275,70.4849707 181.987579,70.4849707 L185.12474,70.4849707 C185.495044,70.4849707 185.796417,70.183598 185.796417,69.8132943 Z" id="Shape" sketch:type="MSShapeGroup"></path>
            </g>
        </g>
    </g>
</svg>