<?xml version="1.0" encoding="UTF-8" standalone="no"?>
<svg width="16px" height="23px" viewBox="0 0 16 23" version="1.1" xmlns="http://www.w3.org/2000/svg" xmlns:xlink="http://www.w3.org/1999/xlink" xmlns:sketch="http://www.bohemiancoding.com/sketch/ns">
    <!-- Generator: Sketch 3.4.4 (17249) - http://www.bohemiancoding.com/sketch -->
    <title>noun_136282_cc</title>
    <desc>Created with Sketch.</desc>
    <defs></defs>
    <g id="Landingpage" stroke="none" stroke-width="1" fill="none" fill-rule="evenodd" sketch:type="MSPage">
        <g id="Desktop-(1170,-15)" sketch:type="MSArtboardGroup" transform="translate(-884.000000, -223.000000)" fill="#76B2E0">
            <g id="Login" sketch:type="MSLayerGroup" transform="translate(844.000000, 55.000000)">
                <g id="noun_136282_cc" transform="translate(40.000000, 168.000000)" sketch:type="MSShapeGroup">
                    <g id="Group">
                        <path d="M14.5,23 L1.5,23 C0.673,23 0,22.327 0,21.5 L0,10.5 C0,9.673 0.673,9 1.5,9 L14.5,9 C15.327,9 16,9.673 16,10.5 L16,21.5 C16,22.327 15.327,23 14.5,23 L14.5,23 Z M2,21 L14,21 L14,11 L2,11 L2,21 L2,21 Z" id="Shape"></path>
                        <path d="M12.9505,11 L2.0495,11 L2.0495,6.094 C2.0495,2.813 4.719,0.1435 8,0.1435 C11.3085,0.1435 14,2.771 14,6.0005 L12,6.0005 C12,3.874 10.2055,2.1435 8,2.1435 C5.8215,2.1435 4.0495,3.9155 4.0495,6.094 L4.0495,9 L12.951,9 L12.951,11 L12.9505,11 Z" id="Shape"></path>
                        <path d="M8.948,18.5 L7.052,18.5 C6.763,18.5 6.543,18.2405 6.5905,17.9555 L7,15.5 L6.864,14.9555 C6.679,14.216 7.238,13.5 8,13.5 L8,13.5 C8.762,13.5 9.321,14.216 9.136,14.955 L9,15.5 L9.4095,17.9555 C9.457,18.2405 9.237,18.5 8.948,18.5 L8.948,18.5 Z" id="Shape"></path>
                    </g>
                </g>
            </g>
        </g>
    </g>
</svg>