<?xml version="1.0" encoding="UTF-8" standalone="no"?>
<svg width="32px" height="26px" viewBox="0 0 32 26" version="1.1" xmlns="http://www.w3.org/2000/svg" xmlns:xlink="http://www.w3.org/1999/xlink" xmlns:sketch="http://www.bohemiancoding.com/sketch/ns">
    <!-- Generator: Sketch 3.4.4 (17249) - http://www.bohemiancoding.com/sketch -->
    <title>Shape Copy</title>
    <desc>Created with Sketch.</desc>
    <defs>
        <linearGradient x1="50%" y1="0%" x2="50%" y2="100%" id="linearGradient-1">
            <stop stop-color="#369CE6" offset="0%"></stop>
            <stop stop-color="#4A6CC1" offset="100%"></stop>
        </linearGradient>
    </defs>
    <g id="Landingpage" stroke="none" stroke-width="1" fill="none" fill-rule="evenodd" sketch:type="MSPage">
        <g id="Desktop-(1170,-15)" sketch:type="MSArtboardGroup" transform="translate(-683.000000, -1426.000000)" fill="url(#linearGradient-1)">
            <g id="hdr" sketch:type="MSLayerGroup" transform="translate(489.000000, 1365.000000)">
                <path d="M224.655996,65.9188986 L215.555264,65.9188986 L215.555264,63.0615458 C215.555264,61.9258774 214.629387,61 213.49232,61 L206.506281,61 C205.369214,61 204.444736,61.9258774 204.444736,63.0615458 L204.444736,65.9188986 L195.341207,65.9188986 C194.962184,65.9188986 194.654491,66.226592 194.654491,66.6070129 L194.654491,84.1315507 C194.654491,85.2700163 195.57897,86.1944951 196.716037,86.1944951 L223.282565,86.1944951 C224.419632,86.1944951 225.345509,85.2714149 225.345509,84.1315507 L225.345509,66.6056143 C225.34411,66.226592 225.037816,65.9188986 224.655996,65.9188986 L224.655996,65.9188986 Z M205.819566,63.0615458 C205.819566,62.6825235 206.128658,62.3748301 206.506281,62.3748301 L213.493719,62.3748301 C213.871342,62.3748301 214.180434,62.6825235 214.180434,63.0615458 L214.180434,65.9188986 L205.819566,65.9188986 L205.819566,63.0615458 L205.819566,63.0615458 Z M223.972078,67.29233 L223.972078,73.0252175 L212.510498,73.0252175 L212.510498,72.3175227 C212.510498,71.1804557 211.588817,70.2559769 210.450351,70.2559769 L209.549649,70.2559769 C208.412582,70.2559769 207.486704,71.1804557 207.486704,72.3175227 L207.486704,73.0252175 L196.029321,73.0252175 L196.029321,67.29233 L223.972078,67.29233 L223.972078,67.29233 Z M208.861534,72.3161241 C208.861534,71.9371018 209.169228,71.6280098 209.549649,71.6280098 L210.450351,71.6280098 C210.829374,71.6280098 211.137067,71.9357032 211.137067,72.3161241 L211.137067,75.1077424 C211.137067,75.4867647 210.829374,75.7944581 210.450351,75.7944581 L209.549649,75.7944581 C209.170626,75.7944581 208.861534,75.4867647 208.861534,75.1077424 L208.861534,72.3161241 L208.861534,72.3161241 Z M223.282565,84.819665 L196.716037,84.819665 C196.337014,84.819665 196.029321,84.510573 196.029321,84.1301521 L196.029321,74.398649 L207.486704,74.398649 L207.486704,75.1077424 C207.486704,76.2448094 208.412582,77.1692882 209.549649,77.1692882 L210.450351,77.1692882 C211.587418,77.1692882 212.510498,76.246208 212.510498,75.1077424 L212.510498,74.398649 L223.972078,74.398649 L223.972078,84.1301521 C223.972078,84.5119716 223.662986,84.819665 223.282565,84.819665 L223.282565,84.819665 Z" id="Shape-Copy" sketch:type="MSShapeGroup"></path>
            </g>
        </g>
    </g>
</svg>